Coordinates
version=1
nRows=14
nColumns=42
inDegrees=yes

Units are S.I. units (second, meters, Newtons, ...)
If the header above contains a line with 'inDegrees', this indicates whether rotational values are in degrees (yes) or radians (no).

endheader
time	pelvis_tilt	pelvis_list	pelvis_rotation	pelvis_tx	pelvis_ty	pelvis_tz	hip_flexion_r	hip_adduction_r	hip_rotation_r	knee_angle_r	knee_angle_r_beta	ankle_angle_r	subtalar_angle_r	mtp_angle_r	hip_flexion_l	hip_adduction_l	hip_rotation_l	knee_angle_l	knee_angle_l_beta	ankle_angle_l	subtalar_angle_l	mtp_angle_l	lumbar_extension	lumbar_bending	lumbar_rotation	sh_tx_r	sh_ty_r	sh_tz_r	sh_plane_elev_r	sh_elev_r	sh_axial_rot_r	elbow_flex_r	pro_sup_r	sh_tx_l	sh_ty_l	sh_tz_l	sh_plane_elev_l	sh_elev_l	sh_axial_rot_l	elbow_flex_l	pro_sup_l
      5.46666670	     -5.13463043	      0.02131067	      0.64522411	      0.24886592	      0.97059061	     -0.04001856	      3.69625856	     -7.63178313	    -11.97298958	      1.46496990	      0.02556855	     -2.37605613	     -7.90360589	     -7.49999987	      4.98981941	     -5.27527001	    -10.02256651	      1.48731905	      0.02595861	      6.27720627	      5.00716869	     -7.49999987	      4.54355727	      4.43250073	     -5.86973441	     -0.00770815	     -0.01434651	     -0.00630526	     -5.44781190	      5.34944878	     -1.65888852	     28.53453044	    107.96974638	     -0.00838608	      0.02042045	     -0.00521338	     78.57807994	    127.22172203	    -11.59646063	      8.14777608	      4.37955885
      5.48333330	     -5.11997714	      0.03176827	      0.60379924	      0.24926183	      0.97057236	     -0.04016033	      3.72727045	     -7.60084765	    -12.08383582	      1.49433392	      0.02608105	     -2.35436467	     -7.81796243	     -7.49999987	      4.97845824	     -5.27962294	    -10.06787402	      1.49847379	      0.02615330	      6.33138413	      5.02777394	     -7.49999987	      4.44920182	      4.41402486	     -5.59436067	     -0.00849433	     -0.01459151	     -0.00631392	     -4.84339803	      5.34394048	     -1.85301743	     28.47297582	    107.14435140	     -0.00770423	      0.02028600	     -0.00516792	     78.65324776	    127.38135552	    -11.91438892	      8.38950445	      4.44449077
      5.50000000	     -5.09902106	      0.04964996	      0.64159043	      0.25307665	      0.97050616	     -0.04475776	      3.68254429	     -7.64323169	    -12.24417942	      1.54284930	      0.02692780	     -2.50934320	     -7.83472851	     -7.49999987	      4.94321012	     -5.22668953	     -9.94100120	      1.50108090	      0.02619880	      6.27688476	      4.93044707	     -7.49999987	      4.49928621	      4.56523201	     -6.60784045	     -0.00598609	     -0.01451227	     -0.00633185	     -4.15475990	      5.52976286	     -1.85587610	     28.50843673	    107.32445536	     -0.01125322	      0.01909364	     -0.00513271	     77.32320689	    127.65176032	    -12.31685902	      8.50499548	      4.68792411
      5.51666670	     -5.03062429	      0.08037970	      0.59314465	      0.25332857	      0.97054952	     -0.04477486	      3.57840039	     -7.70907768	    -12.33576835	      1.53700192	      0.02682574	     -2.56405828	     -7.71841883	     -7.49999987	      4.79835577	     -5.14250870	     -9.99812812	      1.46703948	      0.02560467	      6.33156879	      4.95198563	     -7.49999987	      4.37565282	      4.61068893	     -5.84795765	     -0.00841150	     -0.01451497	     -0.00625288	     -6.02659548	      5.59090304	     -1.33457696	     28.72705748	    108.51043979	     -0.00973333	      0.01954844	     -0.00513804	     78.04467188	    127.78235691	    -11.46546732	      8.20638976	      4.51353624
      5.53333330	     -5.04782772	      0.09634198	      0.55270144	      0.25302193	      0.97043930	     -0.04450868	      3.60392835	     -7.77737018	    -12.50513492	      1.60679482	      0.02804386	     -2.59151463	     -7.56096578	     -7.49999987	      4.73563253	     -5.07291995	    -10.03029037	      1.42047527	      0.02479197	      6.39782216	      4.99094470	     -7.49999987	      4.45855295	      4.68248460	     -5.97849218	     -0.00835178	     -0.01446275	     -0.00623331	     -5.46147887	      5.79456949	     -1.30170111	     28.64870992	    107.57527099	     -0.01029754	      0.01918539	     -0.00510829	     77.89019118	    127.76358968	    -12.02476171	      8.08071700	      4.45127948
      5.55000000	     -5.01973973	      0.08965508	      0.53325240	      0.24918712	      0.96765569	     -0.03980624	      3.66499512	     -7.72432028	    -12.47209901	      1.67322193	      0.02920323	     -2.55779426	     -7.83439845	     -7.49999987	      4.70072173	     -5.07952465	     -9.83874258	      1.41875149	      0.02476188	      6.48598161	      4.68226319	     -7.49999987	      4.36479924	      4.68675594	     -5.75698162	     -0.00822749	     -0.01448467	     -0.00625056	     -5.81621097	      5.57660053	     -1.25117726	     28.84917608	    108.31372142	     -0.00945358	      0.01911385	     -0.00513041	     77.68288294	    127.76245419	    -11.36754539	      8.22407026	      4.48812866
      5.56666670	     -5.02881785	      0.13830878	      0.50475949	      0.25307265	      0.96779692	     -0.04440598	      3.73948433	     -7.79829388	    -12.58860063	      1.75252370	      0.03058731	     -2.59453057	     -7.96201584	     -7.49999987	      4.65761476	     -5.00625409	     -9.86682041	      1.39413290	      0.02433221	      6.47331128	      4.72293944	     -7.49999987	      4.40575128	      4.63210081	     -5.62033775	     -0.00917787	     -0.01421525	     -0.00621132	     -5.32897431	      5.75969283	     -1.39792226	     28.87766930	    107.18069591	     -0.00960234	      0.01942416	     -0.00512209	     77.77214173	    127.76965209	    -12.21365951	      8.41600992	      4.58819973
      5.58333330	     -5.05586284	      0.16727278	      0.48050627	      0.25342756	      0.96801838	     -0.04438449	      3.81624725	     -7.84966718	    -12.70409346	      1.85990526	      0.03246147	     -2.60119378	     -8.07545926	     -7.49999987	      4.63608240	     -4.95063807	     -9.74026340	      1.37406863	      0.02398202	      6.52122743	      4.50700043	     -7.49999987	      4.46888274	      4.63589823	     -5.84282774	     -0.00879059	     -0.01374684	     -0.00621425	     -5.26479570	      5.83848876	     -1.29347630	     29.08738543	    106.92398299	     -0.01096946	      0.01966890	     -0.00515071	     77.33625467	    127.74218710	    -11.68271440	      8.55113552	      4.35126964
      5.60000000	     -5.07365911	      0.18717367	      0.42380974	      0.25320745	      0.96823622	     -0.04414587	      3.87045375	     -7.90056879	    -12.75270868	      1.96202408	      0.03424378	     -2.47966534	     -8.05438585	     -7.49999987	      4.61354274	     -4.89839012	     -9.71442124	      1.37700584	      0.02403329	      6.61970970	      4.39806380	     -7.49999987	      4.53002855	      4.67711061	     -5.51614682	     -0.00946824	     -0.01333314	     -0.00616593	     -6.43746565	      5.84018561	     -1.00765043	     29.30195566	    108.69003699	     -0.01022000	      0.01987077	     -0.00515297	     77.45337516	    127.68766991	    -10.79107642	      8.55126572	      4.57398056
      5.61666670	     -5.10827432	      0.21661328	      0.40248983	      0.25356635	      0.96847247	     -0.04412455	      3.91931981	     -7.93531401	    -12.80065699	      2.04355014	      0.03566668	     -2.47635508	     -8.14030989	     -7.49999987	      4.62587410	     -4.85395254	     -9.58726067	      1.39564686	      0.02435863	      6.63376063	      4.18867499	     -7.49999987	      4.66015483	      4.61740893	     -5.70882973	     -0.00903052	     -0.01289626	     -0.00615800	     -5.66258565	      5.92947972	     -0.95781829	     29.16718924	    107.52606953	     -0.01072460	      0.02037046	     -0.00517003	     77.31721561	    127.61063916	    -11.17210895	      8.71667021	      4.44947412
      5.63333330	     -5.13714190	      0.22840802	      0.35616489	      0.25326401	      0.96856759	     -0.04387038	      3.97943801	     -7.92398119	    -12.76968718	      2.11097995	      0.03684355	     -2.41305721	     -8.12929851	     -7.49999987	      4.61897596	     -4.82242200	     -9.51391752	      1.38817577	      0.02422824	      6.65349638	      4.02601484	     -7.49999987	      4.68937049	      4.64468054	     -5.41606722	     -0.00976894	     -0.01257089	     -0.00611344	     -6.15974979	      5.90625395	     -1.01150722	     29.24319914	    108.07200228	     -0.01000823	      0.02043848	     -0.00518287	     77.46357229	    127.57063481	    -10.97877995	      8.79330337	      4.50797976
      5.65000000	     -5.14420353	      0.25118138	      0.33435092	      0.25361111	      0.97172184	     -0.04375994	      3.94940599	     -7.93767687	    -12.78344362	      2.12287218	      0.03705111	     -2.39373490	     -7.98864546	     -7.49999987	      4.57040341	     -4.79622707	     -9.49742609	      1.34231437	      0.02342781	      6.53894261	      4.02170750	     -7.49999987	      4.73384849	      4.61959432	     -5.37487039	     -0.00997309	     -0.01248207	     -0.00611589	     -5.79949366	      5.92273147	     -1.16463050	     29.00725706	    106.84986085	     -0.00981443	      0.02079434	     -0.00517070	     77.61019491	    127.42391996	    -11.44356951	      8.73956704	      4.40376555
      5.66666670	     -5.07413299	      0.27948212	      0.27833527	      0.25320884	      0.97161925	     -0.04357945	      3.88142373	     -7.97852690	    -12.75292244	      2.14479180	      0.03743368	     -2.32811536	     -7.94511419	     -7.49999987	      4.44667042	     -4.74655015	     -9.51172444	      1.27953241	      0.02233205	      6.48389614	      3.98945769	     -7.49999987	      4.58361255	      4.61490878	     -5.32675427	     -0.01049583	     -0.01254906	     -0.00608272	     -4.59365541	      5.98143479	     -1.81095324	     28.88439989	    105.67700094	     -0.01049039	      0.01985477	     -0.00518733	     77.57938329	    127.45906520	    -12.21540018	      8.84916147	      4.43442031
      5.68333330	     -5.23070847	      0.26236890	      0.25630009	      0.25304774	      0.97126806	     -0.04383251	      4.27082998	     -8.03709730	    -12.86348520	      2.55557501	      0.04460320	     -1.93291818	     -7.57439149	     -7.49999987	      4.85362832	     -4.78190524	     -9.37641927	      1.76632969	      0.03082827	      6.70742145	      3.64698538	     -7.49999987	      4.88648924	      4.91032171	     -5.46997234	     -0.00968590	     -0.01000813	     -0.00577907	     -4.14303778	      6.07739504	     -0.74104472	     28.51271061	    101.11091389	     -0.00998169	      0.01897465	     -0.00508883	     76.27342006	    127.30529773	    -13.62459631	     10.52227965	     10.19947312
